<mxfile host="app.diagrams.net" modified="2022-06-14T13:34:29.308Z" agent="5.0 (Windows NT 10.0; Win64; x64) AppleWebKit/537.36 (KHTML, like Gecko) Chrome/102.0.0.0 Safari/537.36" etag="Xjy-hzn8sduh9OJGrXdB" version="20.0.1" type="github">
  <diagram id="SWRol1frLQe2yTlMzqSv" name="Page-1">
    <mxGraphModel dx="868" dy="435" grid="1" gridSize="10" guides="1" tooltips="1" connect="1" arrows="1" fold="1" page="1" pageScale="1" pageWidth="850" pageHeight="1100" math="0" shadow="0">
      <root>
        <mxCell id="0" />
        <mxCell id="1" parent="0" />
        <mxCell id="n3evPFYXlgENSFzD7lRo-1" value="" style="html=1;points=[];perimeter=orthogonalPerimeter;" vertex="1" parent="1">
          <mxGeometry x="170" y="70" width="10" height="450" as="geometry" />
        </mxCell>
        <mxCell id="n3evPFYXlgENSFzD7lRo-2" value="" style="html=1;points=[];perimeter=orthogonalPerimeter;" vertex="1" parent="1">
          <mxGeometry x="320" y="170" width="10" height="130" as="geometry" />
        </mxCell>
        <mxCell id="n3evPFYXlgENSFzD7lRo-3" value="User" style="shape=umlActor;verticalLabelPosition=bottom;verticalAlign=top;html=1;" vertex="1" parent="1">
          <mxGeometry x="210" y="70" width="30" height="60" as="geometry" />
        </mxCell>
      </root>
    </mxGraphModel>
  </diagram>
</mxfile>
